<svg xmlns="http://www.w3.org/2000/svg" width="49" height="49" fill="none">
<path stroke="currentColor" stroke-linecap="round" stroke-linejoin="round" stroke-width="6" d="m31.833 10.042 6.625-6.625m0 0 6.625 6.625m-6.625-6.625v13.25M24.104 5.625H13.725c-3.71 0-5.566 0-6.983.722a6.625 6.625 0 0 0-2.895 2.895c-.722 1.418-.722 3.273-.722 6.983v18.55c0 3.71 0 5.566.722 6.983a6.626 6.626 0 0 0 2.895 2.895c1.417.722 3.273.722 6.983.722h20.317c2.053 0 3.08 0 3.923-.226a6.625 6.625 0 0 0 4.684-4.684c.226-.843.226-1.87.226-3.923M19.687 17.77a4.417 4.417 0 1 1-8.833 0 4.417 4.417 0 0 1 8.834 0Zm9.916 7.548-18.68 16.982c-1.05.955-1.576 1.433-1.623 1.847-.04.358.098.714.369.952.312.275 1.022.275 2.442.275h20.73c3.177 0 4.767 0 6.015-.534a6.625 6.625 0 0 0 3.485-3.485c.534-1.248.534-2.837.534-6.016 0-1.069 0-1.604-.117-2.102a4.416 4.416 0 0 0-.825-1.717c-.316-.402-.734-.736-1.569-1.405l-6.177-4.941c-.836-.669-1.253-1.003-1.714-1.121a2.208 2.208 0 0 0-1.23.039c-.452.146-.848.506-1.64 1.226Z"/></svg>