<svg xmlns="http://www.w3.org/2000/svg" width="30" height="29" fill="none" class="icon-settings">
<path stroke="currentColor" stroke-linecap="round" stroke-linejoin="round" stroke-width="2" d="M15 18.125a3.625 3.625 0 1 0 0-7.25 3.625 3.625 0 0 0 0 7.25Z"/>
<path stroke="currentColor" stroke-linecap="round" stroke-linejoin="round" stroke-width="2" d="M23.129 17.796a1.813 1.813 0 0 0 .362 1.999l.066.066a2.196 2.196 0 0 1-.713 3.585 2.198 2.198 0 0 1-2.396-.477l-.066-.066a1.812 1.812 0 0 0-1.999-.362 1.812 1.812 0 0 0-1.098 1.659v.186a2.197 2.197 0 0 1-4.394 0v-.098a1.813 1.813 0 0 0-1.187-1.66 1.812 1.812 0 0 0-1.999.363l-.066.066a2.199 2.199 0 1 1-3.108-3.108l.066-.066a1.813 1.813 0 0 0 .362-2A1.812 1.812 0 0 0 5.3 16.785h-.186a2.197 2.197 0 1 1 0-4.394h.098a1.812 1.812 0 0 0 1.66-1.186 1.812 1.812 0 0 0-.363-2l-.066-.066a2.197 2.197 0 0 1 2.395-3.585c.267.11.51.272.713.477l.066.066a1.813 1.813 0 0 0 2 .362h.087A1.813 1.813 0 0 0 12.803 4.8v-.186a2.197 2.197 0 0 1 4.394 0v.099a1.812 1.812 0 0 0 1.098 1.658 1.813 1.813 0 0 0 2-.362l.066-.066a2.197 2.197 0 0 1 3.753 1.554 2.198 2.198 0 0 1-.645 1.555l-.066.066a1.812 1.812 0 0 0-.362 1.999v.088a1.812 1.812 0 0 0 1.659 1.098h.186a2.197 2.197 0 0 1 0 4.394h-.098a1.812 1.812 0 0 0-1.66 1.099Z"/>
</svg>