<svg width="111" height="91" viewBox="0 0 111 91" fill="none" xmlns="http://www.w3.org/2000/svg">
<g clip-path="url(#clip0_2003_34)">
<path fill-rule="evenodd" clip-rule="evenodd" d="M54.0299 69.2361C54.0299 69.2361 53.5315 66.9665 53.43 63.7363C53.2297 57.3857 53.43 47.3237 53.2535 42.2482C52.9801 34.3064 51.4254 17.0038 34.5225 14.4647C19.6928 12.2382 5.40083 21.6081 5.10087 33.5429C5.07172 34.7944 5.12856 36.0464 5.27098 37.2901L5.22251 37.3048C0.625267 38.6972 0.299698 42.4041 1.73182 47.6317C3.142 52.7805 8.95645 61.2897 14.0192 65.2698C18.7646 68.9996 24.0788 74.8139 24.7189 75.5261L24.7839 75.5976L54.0299 69.2361Z" fill="#E84C3D"/>
<path fill-rule="evenodd" clip-rule="evenodd" d="M5.27104 37.2902C5.27104 37.2902 6.85497 45.8755 10.1344 51.0582C10.1344 51.0582 5.83621 47.7317 4.25228 45.1256C2.37845 42.0347 2.1489 39.1895 2.1489 39.1895C2.1489 39.1895 3.0561 37.8209 5.27104 37.2902Z" fill="#C43D32"/>
<path fill-rule="evenodd" clip-rule="evenodd" d="M5.93501 37.1673C5.93501 37.1673 6.58157 41.3261 8.02924 45.6151C8.65477 47.4667 9.4257 49.3413 10.3612 50.9142C10.3801 50.9443 10.3929 50.9778 10.3988 51.0129C10.4047 51.0479 10.4037 51.0838 10.3958 51.1184C10.3879 51.1531 10.3733 51.1858 10.3528 51.2148C10.3322 51.2438 10.3062 51.2684 10.2762 51.2873C10.2462 51.3062 10.2127 51.319 10.1778 51.3249C10.1428 51.3309 10.107 51.3299 10.0725 51.3219C10.0379 51.314 10.0052 51.2994 9.97634 51.2788C9.94743 51.2582 9.92284 51.2322 9.90399 51.2021C8.85779 49.6438 7.96157 47.7729 7.21624 45.9148C5.49605 41.6213 4.60258 37.4139 4.60258 37.4139C4.56995 37.2374 4.60861 37.0551 4.71006 36.9072C4.8115 36.7593 4.96743 36.6578 5.14351 36.6251C5.3196 36.5924 5.50142 36.6312 5.649 36.7328C5.79658 36.8345 5.89782 36.9908 5.93045 37.1673H5.93501Z" fill="white"/>
<path fill-rule="evenodd" clip-rule="evenodd" d="M52.9801 38.0033C50.959 45.1595 46.3563 57.3693 37.6053 62.4237C29.9134 66.8666 23.477 68.8246 19.0215 69.6771C21.9315 72.4646 24.3047 75.0633 24.7226 75.5244L24.7875 75.5959L54.0299 69.2343C54.0299 69.2343 53.5315 66.9647 53.43 63.7345C53.2297 57.3839 53.43 47.3219 53.2535 42.2464C53.2105 41.0264 53.1383 39.5808 52.9801 38.0033Z" fill="#C43D32"/>
<path d="M24.7876 76.2576C24.8346 76.2577 24.8815 76.2528 24.9275 76.243L54.169 69.8815C54.2536 69.863 54.3337 69.828 54.4048 69.7784C54.4759 69.7289 54.5365 69.6658 54.5832 69.5927C54.6308 69.52 54.6633 69.4386 54.679 69.3531C54.6948 69.2676 54.6933 69.1799 54.6747 69.095C54.6747 69.0721 54.1882 66.8391 54.0894 63.7179C53.987 60.4482 53.9897 56.2188 53.9934 52.1279C53.9934 48.3045 53.9989 44.6929 53.9129 42.2281C53.7666 38.0023 53.2773 31.7307 50.7277 26.0603C47.5799 19.0663 42.1614 14.9414 34.6204 13.8121C30.3854 13.1835 26.0661 13.4479 21.9389 14.5885C18.0156 15.6802 14.4088 17.5474 11.508 19.9884C7.07718 23.7164 4.56868 28.5242 4.44247 33.5254C4.41648 34.6268 4.45619 35.7288 4.56137 36.8254C-0.65134 38.6953 -0.040451 43.6526 1.09629 47.804C2.58511 53.2352 8.55046 61.8058 13.6132 65.7859C18.3275 69.4928 23.6444 75.319 24.2352 75.9671L24.3001 76.0386C24.3616 76.1072 24.4367 76.1622 24.5207 76.1999C24.6046 76.2377 24.6956 76.2573 24.7876 76.2576ZM53.2627 68.7283L25.019 74.8698C23.8694 73.6131 18.8917 68.2599 14.4262 64.7473C9.62958 60.9762 3.7694 52.5724 2.36654 47.4539C0.821934 41.8156 1.70443 39.0565 5.41277 37.9336L5.45393 37.9217C5.60308 37.8783 5.73215 37.7835 5.81833 37.6541C5.90451 37.5246 5.94225 37.3687 5.92489 37.214C5.78662 36.0001 5.73102 34.7781 5.75846 33.5566C5.87551 28.9386 8.21758 24.4818 12.3548 20.9986C18.161 16.1119 26.4117 13.9129 34.4247 15.1165C46.0792 16.8672 52.0226 25.7495 52.5951 42.2721C52.6801 44.7149 52.6774 48.3146 52.6746 52.126C52.6746 56.2271 52.6682 60.4675 52.7716 63.7583C52.8208 65.4243 52.9849 67.085 53.2627 68.7283Z" fill="white"/>
<path d="M37.3969 72.3867C37.4808 72.387 37.5619 72.356 37.6242 72.2997C37.6865 72.2433 37.7257 72.1657 37.734 72.082C37.7424 71.9983 37.7193 71.9145 37.6693 71.8469C37.6193 71.7794 37.546 71.7329 37.4637 71.7166L32.2866 70.6542C32.2431 70.6453 32.1984 70.6451 32.1548 70.6535C32.1112 70.6619 32.0697 70.6789 32.0327 70.7034C31.9957 70.7279 31.9638 70.7595 31.939 70.7964C31.9142 70.8332 31.8968 70.8746 31.8879 70.9182C31.879 70.9618 31.8788 71.0067 31.8872 71.0503C31.8956 71.094 31.9126 71.1356 31.937 71.1727C31.9615 71.2098 31.993 71.2417 32.0297 71.2666C32.0665 71.2915 32.1078 71.3089 32.1513 71.3179L37.3283 72.3793C37.3509 72.384 37.3739 72.3865 37.3969 72.3867Z" fill="#213D5E"/>
<path d="M32.8262 73.4692C32.908 73.4689 32.9869 73.439 33.0484 73.3849L37.1116 69.8164C37.1463 69.7875 37.175 69.752 37.1958 69.7119C37.2166 69.6718 37.2292 69.6279 37.2328 69.5828C37.2364 69.5378 37.231 69.4924 37.2168 69.4495C37.2026 69.4066 37.18 69.3669 37.1503 69.3329C37.1206 69.2989 37.0844 69.2712 37.0438 69.2515C37.0032 69.2317 36.9591 69.2204 36.9141 69.218C36.869 69.2156 36.824 69.2223 36.7815 69.2377C36.7391 69.2531 36.7002 69.2769 36.6671 69.3076L32.603 72.8734C32.5512 72.9187 32.5144 72.9788 32.4977 73.0457C32.4809 73.1126 32.4849 73.183 32.5092 73.2475C32.5335 73.3121 32.5769 73.3676 32.6335 73.4067C32.6902 73.4459 32.7574 73.4667 32.8262 73.4664V73.4692Z" fill="#213D5E"/>
<path d="M37.973 76.2741C38.0558 76.2745 38.1359 76.2443 38.198 76.1893C38.2601 76.1344 38.2998 76.0584 38.3096 75.976C38.3195 75.8935 38.2987 75.8104 38.2513 75.7423C38.2039 75.6742 38.1332 75.626 38.0526 75.6068L32.9176 74.3537C32.8742 74.3421 32.8288 74.3393 32.7843 74.3455C32.7398 74.3517 32.6969 74.3667 32.6583 74.3897C32.6196 74.4127 32.5859 74.4433 32.5592 74.4795C32.5325 74.5157 32.5133 74.557 32.5027 74.6008C32.4921 74.6446 32.4903 74.69 32.4975 74.7345C32.5047 74.779 32.5206 74.8216 32.5445 74.8598C32.5683 74.898 32.5995 74.9311 32.6362 74.957C32.673 74.983 32.7146 75.0013 32.7585 75.011L37.8907 76.2649C37.9177 76.2713 37.9453 76.2744 37.973 76.2741Z" fill="#213D5E"/>
<path d="M33.3657 77.1862C33.4431 77.1863 33.5181 77.1594 33.5778 77.1102L37.7709 73.6984C37.8053 73.6704 37.8338 73.6358 37.8549 73.5967C37.876 73.5576 37.8892 73.5147 37.8937 73.4705C37.8983 73.4262 37.8941 73.3816 37.8814 73.339C37.8687 73.2964 37.8478 73.2567 37.8198 73.2222C37.7918 73.1877 37.7573 73.1591 37.7183 73.138C37.6793 73.1168 37.6365 73.1036 37.5924 73.0991C37.5483 73.0945 37.5037 73.0987 37.4612 73.1114C37.4187 73.1241 37.3791 73.1451 37.3447 73.1732L33.1517 76.5877C33.0978 76.632 33.0589 76.6919 33.0403 76.7592C33.0217 76.8266 33.0242 76.898 33.0477 76.9638C33.0711 77.0296 33.1142 77.0865 33.1711 77.1268C33.228 77.1672 33.296 77.1889 33.3657 77.189V77.1862Z" fill="#213D5E"/>
<path d="M38.8052 79.9764C38.8876 79.9759 38.9669 79.9452 39.0284 79.8901C39.0898 79.8351 39.1291 79.7595 39.1389 79.6775C39.1486 79.5955 39.1282 79.5127 39.0814 79.4447C39.0346 79.3767 38.9647 79.3282 38.8847 79.3082L33.7507 78.0551C33.6655 78.0389 33.5773 78.0561 33.5044 78.1032C33.4315 78.1503 33.3794 78.2236 33.3588 78.308C33.3383 78.3925 33.3509 78.4816 33.394 78.557C33.4372 78.6325 33.5075 78.6884 33.5906 78.7133L38.7247 79.9663C38.751 79.9728 38.778 79.9762 38.8052 79.9764Z" fill="#213D5E"/>
<path d="M34.1952 80.8876C34.2726 80.8876 34.3478 80.8611 34.4082 80.8124L38.6003 77.397C38.6348 77.369 38.6633 77.3344 38.6844 77.2953C38.7055 77.2562 38.7187 77.2133 38.7232 77.1691C38.7277 77.1249 38.7236 77.0802 38.7109 77.0376C38.6982 76.995 38.6773 76.9553 38.6493 76.9208C38.6213 76.8863 38.5868 76.8577 38.5478 76.8366C38.5088 76.8155 38.466 76.8022 38.4219 76.7977C38.3777 76.7931 38.3332 76.7973 38.2907 76.81C38.2482 76.8228 38.2086 76.8437 38.1742 76.8718L33.9821 80.2872C33.9281 80.3313 33.889 80.3911 33.8703 80.4583C33.8516 80.5256 33.854 80.597 33.8774 80.6627C33.9007 80.7285 33.9438 80.7854 34.0007 80.8257C34.0576 80.8659 34.1255 80.8876 34.1952 80.8876Z" fill="#213D5E"/>
<path d="M40.0755 83.6449C40.1584 83.644 40.2382 83.6126 40.2995 83.5566C40.3609 83.5006 40.3996 83.424 40.4083 83.3413C40.417 83.2586 40.3951 83.1756 40.3467 83.108C40.2983 83.0404 40.2268 82.9931 40.1459 82.9749L34.9771 81.8749C34.8895 81.8562 34.7981 81.8731 34.723 81.9219C34.6479 81.9707 34.5952 82.0474 34.5765 82.1352C34.5578 82.223 34.5747 82.3146 34.6234 82.3899C34.6721 82.4652 34.7487 82.518 34.8362 82.5367L40.005 83.6367C40.0282 83.6416 40.0518 83.6444 40.0755 83.6449Z" fill="#213D5E"/>
<path d="M35.4965 84.6908C35.5774 84.6906 35.6556 84.6613 35.7169 84.6083L39.8111 81.0728C39.8447 81.0438 39.8722 81.0084 39.8922 80.9687C39.9121 80.9291 39.924 80.8858 39.9273 80.8415C39.9306 80.7972 39.9251 80.7527 39.9112 80.7105C39.8973 80.6683 39.8753 80.6293 39.8463 80.5957C39.8174 80.562 39.7821 80.5344 39.7425 80.5144C39.7029 80.4944 39.6598 80.4825 39.6156 80.4792C39.5714 80.4759 39.527 80.4814 39.4849 80.4953C39.4428 80.5093 39.4039 80.5314 39.3703 80.5604L35.2788 84.0959C35.2265 84.1409 35.1891 84.2009 35.1719 84.2679C35.1546 84.3348 35.1582 84.4055 35.1822 84.4703C35.2063 84.5351 35.2495 84.591 35.3062 84.6304C35.3629 84.6698 35.4302 84.6909 35.4992 84.6908H35.4965Z" fill="#213D5E"/>
<path d="M36.2445 87.4307C36.3913 87.4305 36.5348 87.3878 36.6579 87.3078C37.6355 86.679 37.7078 83.3855 37.7078 82.7319C37.7083 82.66 37.6858 82.5897 37.6438 82.5314C37.6017 82.4731 37.5422 82.4298 37.4739 82.4077C37.4055 82.3856 37.3319 82.3859 37.2638 82.4086C37.1957 82.4314 37.1366 82.4753 37.095 82.534C36.8829 82.8319 35.0365 85.4819 35.3758 86.7359C35.4091 86.8713 35.473 86.9973 35.5626 87.1041C35.6522 87.2109 35.765 87.2957 35.8925 87.3518C36.0027 87.4034 36.1229 87.4303 36.2445 87.4307ZM36.9835 83.9575C36.8801 85.2876 36.6323 86.5241 36.293 86.7377C36.2701 86.7524 36.2464 86.7679 36.1732 86.7377C36.1368 86.7224 36.1047 86.6983 36.0798 86.6676C36.055 86.6369 36.038 86.6005 36.0305 86.5617C35.8925 86.0465 36.411 84.9282 36.9835 83.9575Z" fill="#1B314B"/>
<path d="M40.7715 86.4443C40.9275 86.4464 41.08 86.3975 41.2058 86.305C41.3148 86.2291 41.4011 86.125 41.4556 86.0037C41.51 85.8825 41.5305 85.7486 41.515 85.6166C41.3933 84.4983 38.765 82.9803 37.5112 82.4202C37.4438 82.3898 37.3682 82.3825 37.2962 82.3994C37.2242 82.4162 37.1597 82.4563 37.1126 82.5135C37.0655 82.5707 37.0385 82.6418 37.0357 82.7158C37.0328 82.7899 37.0544 82.8629 37.097 82.9235C37.4792 83.4735 39.4472 86.2362 40.6233 86.4315C40.6722 86.4401 40.7218 86.4444 40.7715 86.4443ZM38.5218 83.6999C39.7756 84.4286 40.798 85.2747 40.8437 85.6899C40.8437 85.7156 40.8437 85.7284 40.8053 85.7605C40.782 85.7673 40.7573 85.7673 40.734 85.7605C40.2621 85.6853 39.3348 84.7137 38.5218 83.6999Z" fill="#1B314B"/>
<path d="M38.3947 91.0001H38.4385C38.5274 90.9884 38.608 90.9419 38.6627 90.8708C38.7174 90.7996 38.7417 90.7097 38.7303 90.6206L37.7079 82.6861C37.7018 82.642 37.6872 82.5996 37.6649 82.5612C37.6425 82.5228 37.6128 82.4892 37.5775 82.4623C37.5422 82.4354 37.5019 82.4157 37.459 82.4044C37.4161 82.3931 37.3714 82.3904 37.3274 82.3964C37.2835 82.4024 37.2411 82.4171 37.2028 82.4395C37.1645 82.4619 37.131 82.4917 37.1041 82.5271C37.0773 82.5625 37.0577 82.6029 37.0464 82.6459C37.0351 82.6889 37.0324 82.7337 37.0384 82.7777L38.059 90.7095C38.0707 90.7903 38.1111 90.8642 38.1727 90.9176C38.2344 90.971 38.3132 91.0002 38.3947 91.0001Z" fill="#1B314B"/>
<path d="M40.167 90.3483C40.2083 90.3483 40.2492 90.3405 40.2877 90.3254C40.3291 90.3095 40.3671 90.2856 40.3993 90.255C40.4316 90.2245 40.4575 90.1878 40.4756 90.1472C40.4937 90.1066 40.5036 90.0628 40.5048 90.0184C40.5059 89.9739 40.4984 89.9296 40.4825 89.8881L37.6886 82.6081C37.6565 82.5244 37.5925 82.4568 37.5107 82.4204C37.4289 82.384 37.336 82.3816 37.2524 82.4138C37.1689 82.446 37.1015 82.5102 37.0651 82.5922C37.0288 82.6742 37.0264 82.7673 37.0585 82.851L39.8515 90.131C39.876 90.1949 39.9193 90.2499 39.9756 90.2887C40.0319 90.3274 40.0986 90.3482 40.167 90.3483Z" fill="#1B314B"/>
<path fill-rule="evenodd" clip-rule="evenodd" d="M36.0049 68.2343C40.379 67.0234 51.3687 64.6493 53.2252 65.301C55.0816 65.9528 55.7108 65.5934 56.3619 69.2169C57.0131 72.8404 57.7913 77.0698 57.945 78.3742C58.0986 79.6786 58.0483 81.2497 53.6468 82.5404C46.9251 84.5121 31.2669 87.3986 28.8928 87.988C26.5187 88.5774 25.2878 86.4398 24.7318 84.7128C24.1758 82.9859 20.5955 75.0166 22.9842 73.043C25.3729 71.0695 33.6601 68.8833 36.0049 68.2343Z" fill="#E84C3D"/>
<path fill-rule="evenodd" clip-rule="evenodd" d="M31.9619 69.3773C33.6903 68.8622 35.1983 68.4607 36.0049 68.2343C40.379 67.0234 51.3687 64.6493 53.2252 65.301C55.0816 65.9528 55.7108 65.5934 56.3619 69.2169C57.0131 72.8404 57.7913 77.0698 57.945 78.3742C58.0986 79.6786 58.0483 81.2497 53.6468 82.5404C49.3815 83.7916 41.5185 85.4122 35.7352 86.5791C34.9277 85.7541 33.8147 84.5909 33.4855 83.5074C32.8609 81.4331 29.4507 71.8899 31.9619 69.3773Z" fill="#C43D32"/>
<path fill-rule="evenodd" clip-rule="evenodd" d="M55.8416 67.1214C53.1447 65.4128 30.0798 71.1409 25.4533 73.8973C25.4533 73.8973 26.5581 81.6888 28.2142 85.0914L57.8965 78.0066L55.8416 67.1214Z" fill="#F5DED6"/>
<path fill-rule="evenodd" clip-rule="evenodd" d="M55.8416 67.1214C53.7647 65.806 39.6045 68.9006 31.0922 71.6533C30.7182 75.4528 32.9852 81.8528 33.4864 83.5055C33.5176 83.6076 33.5542 83.708 33.5961 83.8062L57.8965 78.0065L55.8416 67.1241V67.1214Z" fill="#F0CDC1"/>
<path d="M28.1155 88.7616C28.4323 88.7589 28.7476 88.7179 29.0547 88.6397C29.7387 88.4711 31.6153 88.0897 34.0013 87.614C39.9995 86.4077 49.0642 84.5845 53.837 83.1848C58.3867 81.8501 58.8229 80.0434 58.6153 78.289C58.4818 77.1569 57.8929 73.8891 57.3222 70.7294C57.2225 70.1794 57.1238 69.6294 57.0268 69.0913C56.4443 65.8492 55.8032 65.3817 54.1223 64.8748C53.9102 64.8106 53.6907 64.7446 53.4483 64.6594C51.1438 63.8509 38.7768 66.7676 35.8248 67.5807L35.3227 67.7191C30.4758 69.0492 24.644 70.7963 22.5571 72.5196C20.1519 74.5051 22.4437 80.5448 23.6755 83.7943C23.863 84.2893 24.0112 84.6798 24.0898 84.9236C24.8928 87.4087 26.3313 88.7616 28.1155 88.7616ZM52.2384 65.8574C52.4956 65.8459 52.753 65.8731 53.0021 65.9381C53.2764 66.0297 53.516 66.1067 53.7337 66.1718C54.3738 66.3662 54.6692 66.4651 54.9006 66.764C55.2042 67.1572 55.4493 67.9501 55.7008 69.3306C55.7922 69.8668 55.8965 70.4168 55.9962 70.9686C56.5622 74.1091 57.1484 77.3567 57.2765 78.4466C57.388 79.3926 57.5408 80.6878 53.4593 81.884C48.7423 83.2682 39.7124 85.0841 33.7379 86.2839C31.2468 86.7844 29.4461 87.1465 28.7346 87.3216C28.5403 87.3712 28.3407 87.3968 28.1402 87.3977C26.6477 87.3977 25.8192 85.8687 25.3765 84.4965C25.2851 84.2215 25.1342 83.8154 24.9394 83.3048C24.3989 81.8813 23.5832 79.7299 23.1442 77.7133C22.676 75.5656 22.7738 74.0898 23.4186 73.5582C25.5494 71.7982 33.1746 69.7082 35.6812 69.0189L36.186 68.8796C40.9159 67.577 49.4135 65.8574 52.2384 65.8574Z" fill="white"/>
<path fill-rule="evenodd" clip-rule="evenodd" d="M54.9646 54.0867C54.9646 54.0867 55.6149 51.8556 55.9331 48.6418C56.5596 42.3169 57.0369 32.2668 57.5536 27.2143C58.3621 19.3064 61.069 2.14861 78.1091 0.757144C93.0549 -0.463828 106.685 9.85027 106.185 21.7777C105.684 33.7051 96.6626 45.4271 92.5675 50.0553C88.4723 54.6834 83.7159 62.408 83.7159 62.408L54.9646 54.0867Z" fill="#E84C3D"/>
<path d="M83.7132 63.0653C83.8255 63.0653 83.936 63.0365 84.0342 62.9817C84.1323 62.9268 84.2148 62.8477 84.2738 62.7518C84.3213 62.6757 89.0466 55.0227 93.0531 50.4908C94.8364 48.4741 98.2767 44.3006 101.29 38.9759C104.751 32.8692 106.617 27.0915 106.84 21.8052C107.051 16.8068 104.87 11.8413 100.701 7.82182C97.974 5.19104 94.4989 3.08368 90.658 1.72979C86.6161 0.312804 82.3235 -0.242619 78.0551 0.099077C70.4555 0.719646 64.7718 4.46506 61.1632 11.2308C58.2367 16.716 57.3277 22.941 56.8979 27.1465C56.6473 29.6022 56.4068 33.2065 56.1526 37.0225C55.8782 41.1034 55.6039 45.3227 55.2783 48.5768C54.9701 51.6842 54.3391 53.8796 54.3327 53.9016C54.3079 53.9851 54.2999 54.0728 54.3091 54.1594C54.3183 54.2461 54.3445 54.33 54.3863 54.4065C54.428 54.4829 54.4845 54.5503 54.5523 54.6048C54.6202 54.6593 54.6982 54.6997 54.7817 54.7238L83.5303 63.0424C83.5899 63.0585 83.6514 63.0662 83.7132 63.0653ZM80.5334 1.31822C87.7983 1.31822 94.8583 4.02232 99.7884 8.7733C103.681 12.526 105.718 17.1349 105.524 21.7493C105.005 34.0865 95.0988 46.199 92.0718 49.6154C88.5381 53.6092 84.4814 59.9432 83.4187 61.6344L55.7648 53.6294C56.1522 52.0089 56.4272 50.3636 56.5879 48.7051C56.9116 45.43 57.1933 41.1996 57.4658 37.1086C57.7191 33.3046 57.9587 29.7122 58.2075 27.2795C59.8893 10.8348 66.417 2.37419 78.1621 1.41446C78.9522 1.3503 79.7451 1.31822 80.5334 1.31822Z" fill="white"/>
<path fill-rule="evenodd" clip-rule="evenodd" d="M95.1683 25.2408C97.1381 30.6417 92.2857 43.6416 86.3149 48.5236C81.724 52.2754 72.8716 53.9978 66.502 50.2808C67.2336 46.2283 67.1294 42.9422 66.5377 40.4727C65.7832 37.3213 64.7196 34.4018 62.6208 32.5776C62.0598 32.0884 61.6071 31.4868 61.2921 30.8115C60.9771 30.1363 60.8067 29.4024 60.7918 28.6572C60.7004 22.8997 62.501 16.9333 67.166 15.3264C73.509 13.1383 92.0635 16.7279 95.1683 25.2408Z" fill="#C43D32"/>
<path fill-rule="evenodd" clip-rule="evenodd" d="M70.4601 58.5737C70.4601 58.5737 69.2429 49.3761 77.9115 41.6524C86.5802 33.9288 94.3407 39.2325 97.2379 35.6484C100.135 32.0643 101.666 23.9566 105.808 25.5231C110.301 27.2244 110.376 30.9433 108.596 36.0627C106.843 41.1043 100.468 49.2019 95.1528 52.83C89.8377 56.4581 83.7132 62.408 83.7132 62.408L70.4601 58.5737Z" fill="#E84C3D"/>
<path fill-rule="evenodd" clip-rule="evenodd" d="M77.7177 41.4324C80.2682 39.1115 82.7539 37.9235 85.0657 37.3075C87.9135 36.5513 90.497 36.6723 92.6187 36.6329C94.4642 36.5989 95.9402 36.4834 96.8519 35.3331C98.681 33.0332 99.9338 28.9055 101.681 26.6075C102.855 25.0639 104.245 24.2911 106.022 24.953C108.162 25.7477 109.383 26.9824 109.954 28.5554C110.673 30.5592 110.287 33.1826 109.223 36.2799C108.291 38.9382 106.108 42.4471 103.446 45.7077C100.977 48.7326 98.0984 51.5485 95.482 53.3158C93.9145 54.369 92.2812 55.6239 90.7467 56.8678C87.0886 59.8396 84.0442 62.7508 84.0442 62.7508C83.9538 62.8352 83.834 62.8807 83.7105 62.8775C83.587 62.8744 83.4697 62.8228 83.3838 62.7338C83.2978 62.6449 83.25 62.5257 83.2508 62.4019C83.2515 62.2781 83.3006 62.1595 83.3876 62.0716C83.3876 62.0716 85.8001 59.6883 88.9149 57.0016C90.7577 55.4131 92.8473 53.721 94.8254 52.3506C97.3339 50.6117 100.077 47.8489 102.451 44.8992C104.982 41.7532 107.089 38.4011 107.973 35.8409C108.94 33.0909 109.378 30.7691 108.752 28.9807C108.308 27.7166 107.302 26.7514 105.593 26.0933C104.361 25.6175 103.43 26.2546 102.595 27.3188C100.815 29.5884 99.4857 33.6932 97.6247 35.9619C96.7431 37.0325 95.4857 37.4074 93.9054 37.5037C91.6292 37.643 88.6415 37.214 85.2523 38.0436C83.0172 38.5936 80.6048 39.688 78.1054 41.8697C78.0476 41.9212 77.9717 41.9476 77.8944 41.943C77.8171 41.9385 77.7448 41.9033 77.6934 41.8454C77.642 41.7874 77.6157 41.7113 77.6202 41.6339C77.6248 41.5564 77.6598 41.484 77.7177 41.4324Z" fill="white"/>
<path fill-rule="evenodd" clip-rule="evenodd" d="M103.817 21.0124C103.817 21.0124 101.541 29.7911 95.064 32.1313C85.2879 35.6677 67.69 29.4042 64.7078 22.7164C61.6679 15.8966 67.1413 6.88501 67.1413 6.88501L103.817 21.0124Z" fill="#E84C3D"/>
<path fill-rule="evenodd" clip-rule="evenodd" d="M63.8272 16.9818C63.6891 18.9068 63.893 20.8904 64.7078 22.7163C67.6901 29.4079 85.2843 35.6676 95.0641 32.1312C97.8277 31.1312 99.8259 28.9605 101.21 26.7991C100.51 27.2432 99.7642 27.6099 98.9855 27.8926C87.6639 31.9882 67.2858 24.7348 63.8317 16.991L63.8272 16.9818Z" fill="#C43D32"/>
<path fill-rule="evenodd" clip-rule="evenodd" d="M104.139 21.0957C104.139 21.0957 103.041 25.5414 100.103 29.0393C98.8373 30.5445 97.2305 31.8681 95.2387 32.6142C92.3314 33.6977 88.7365 33.9489 85.0236 33.5676C82.7553 33.3274 80.5129 32.885 78.323 32.2458C74.8122 31.2246 71.5236 29.7451 68.9703 28.0429C66.6374 26.4892 64.9199 24.7311 64.1435 22.9684C63.1887 20.7932 63.0461 18.4117 63.3287 16.1485C63.9615 11.0786 66.7124 6.62368 66.7124 6.62368C66.7468 6.5674 66.792 6.51848 66.8453 6.47971C66.8987 6.44094 66.9591 6.41307 67.0232 6.39771C67.0872 6.38235 67.1537 6.37978 67.2188 6.39017C67.2838 6.40055 67.3462 6.42367 67.4023 6.45822C67.4585 6.49277 67.5073 6.53806 67.546 6.59152C67.5847 6.64497 67.6125 6.70554 67.6278 6.76976C67.6431 6.83398 67.6457 6.9006 67.6353 6.96581C67.625 7.03103 67.6019 7.09355 67.5674 7.14983C67.5674 7.14983 65.0068 11.4416 64.4718 16.2897C64.245 18.3457 64.3804 20.5063 65.272 22.4679C65.9844 24.0473 67.5811 25.5753 69.6863 26.965C72.1509 28.5902 75.317 29.9972 78.6888 30.9982C80.8033 31.6318 82.9674 32.0853 85.158 32.3539C88.6825 32.7719 92.1083 32.6289 94.8902 31.6509C97.2286 30.836 99.0055 29.1411 100.324 27.349C102.574 24.2902 103.495 20.9325 103.495 20.9325C103.524 20.8559 103.581 20.7928 103.654 20.7553C103.726 20.7178 103.811 20.7085 103.89 20.7293C103.969 20.7501 104.038 20.7994 104.083 20.8678C104.128 20.9363 104.147 21.019 104.135 21.1003L104.139 21.0957Z" fill="white"/>
<path fill-rule="evenodd" clip-rule="evenodd" d="M67.7769 57.7954C67.7769 57.7954 76.2087 42.0878 74.1501 41.404C72.0916 40.7202 66.1491 57.3252 66.1491 57.3252L67.7769 57.7954Z" fill="#C43D32"/>
<path fill-rule="evenodd" clip-rule="evenodd" d="M68.2223 58.108C68.1089 58.383 67.8647 58.5159 67.6361 58.4298H67.594L65.9726 57.9531C65.8871 57.9282 65.8076 57.8861 65.7388 57.8294C65.6701 57.7726 65.6137 57.7024 65.5729 57.6231C65.5323 57.5437 65.5083 57.4567 65.5027 57.3676C65.497 57.2785 65.5097 57.1892 65.54 57.1052C65.54 57.1052 68.7554 48.2275 71.3014 43.6901C71.969 42.4984 72.6055 41.5983 73.1259 41.1757C73.5712 40.8137 73.9938 40.7394 74.333 40.854C74.7226 40.9842 75.0098 41.3361 75.0464 41.9622C75.0838 42.6039 74.8342 43.6782 74.3797 44.9734C72.6833 49.8041 68.2232 58.0356 68.2232 58.0356L68.2223 58.108ZM73.8977 42.0493C73.9019 42.2391 73.8872 42.4289 73.8538 42.6158C73.6572 43.8432 72.9174 45.802 72.012 47.8984C70.4244 51.5742 68.322 55.6578 67.5922 57.0529L67.0014 56.8852C67.5803 55.2884 69.1404 51.0718 70.76 47.4777C71.7011 45.3877 72.6558 43.5086 73.4478 42.514C73.57 42.354 73.7078 42.2066 73.8593 42.074L73.8977 42.0493Z" fill="white"/>
<path d="M70.1418 58.7478C70.191 58.748 70.2393 58.7346 70.2814 58.709C70.3235 58.6835 70.3578 58.6468 70.3805 58.603C70.4783 58.4197 70.5634 58.2648 70.6329 58.1254C70.6539 58.0856 70.6649 58.0412 70.6649 57.9962C70.6614 57.9375 70.6392 57.8815 70.6017 57.8364C70.5641 57.7912 70.5131 57.7594 70.4561 57.7454C70.3991 57.7315 70.3392 57.7362 70.2851 57.7589C70.231 57.7816 70.1856 57.8211 70.1555 57.8715L69.9022 58.3509C69.8697 58.4148 69.8633 58.4889 69.8845 58.5574C69.9057 58.6259 69.9527 58.6833 70.0156 58.7176C70.0545 58.7379 70.0979 58.7483 70.1418 58.7478ZM70.9045 57.3133C70.9532 57.3134 71.0011 57.3003 71.043 57.2753C71.0849 57.2502 71.1192 57.2143 71.1423 57.1712L71.2776 56.9237L71.3983 56.6982C71.4201 56.6586 71.4314 56.6141 71.4312 56.569C71.4306 56.5203 71.417 56.4726 71.3919 56.4309C71.3669 56.3892 71.3312 56.3549 71.2886 56.3315C71.2494 56.3097 71.2053 56.2984 71.1605 56.2985C71.1118 56.2991 71.0641 56.3126 71.0223 56.3377C70.9805 56.3629 70.9462 56.3987 70.9228 56.4415L70.6667 56.9182C70.6499 56.9495 70.6393 56.9838 70.6357 57.0192C70.6321 57.0545 70.6355 57.0903 70.6457 57.1243C70.6559 57.1584 70.6727 57.1901 70.6951 57.2176C70.7176 57.2452 70.7452 57.268 70.7765 57.2849C70.8162 57.3046 70.8601 57.3143 70.9045 57.3133ZM64.5468 57.1299C64.6069 57.1301 64.6654 57.11 64.7128 57.073C64.7602 57.0359 64.7938 56.984 64.8084 56.9255C64.8085 56.9237 64.8085 56.9219 64.8084 56.92C64.8248 56.8559 64.8696 56.6762 64.9437 56.3994C64.9611 56.3299 64.9508 56.2563 64.9149 56.1944C64.8791 56.1324 64.8205 56.0869 64.7517 56.0676C64.6823 56.0504 64.6091 56.061 64.5474 56.0971C64.4858 56.1332 64.4406 56.192 64.4215 56.261C64.3301 56.5937 64.2834 56.7917 64.2825 56.7935C64.2734 56.8334 64.2733 56.8748 64.2821 56.9148C64.291 56.9547 64.3087 56.9922 64.3338 57.0244C64.359 57.0566 64.391 57.0828 64.4275 57.1011C64.464 57.1193 64.5042 57.1292 64.545 57.1299H64.5468ZM71.6745 55.8824C71.7233 55.8825 71.7711 55.8694 71.813 55.8444C71.8549 55.8194 71.8892 55.7834 71.9123 55.7403L72.1692 55.2637C72.1903 55.2239 72.2013 55.1795 72.2013 55.1344C72.1979 55.076 72.176 55.0201 72.1388 54.975C72.1017 54.9299 72.0511 54.8979 71.9945 54.8836C71.9378 54.8692 71.8782 54.8734 71.8241 54.8954C71.77 54.9175 71.7243 54.9562 71.6937 55.0061L71.5392 55.2939L71.4367 55.4827C71.4157 55.5241 71.4055 55.5702 71.407 55.6167C71.4086 55.6631 71.4218 55.7084 71.4456 55.7483C71.4693 55.7882 71.5028 55.8215 71.5428 55.8449C71.5828 55.8684 71.6282 55.8813 71.6745 55.8824ZM64.9684 55.5487C65.0273 55.5481 65.0844 55.5286 65.1314 55.4929C65.1783 55.4573 65.2125 55.4074 65.229 55.3507C65.2729 55.1931 65.3205 55.0226 65.3754 54.8292C65.3946 54.7599 65.3861 54.6859 65.3516 54.6229C65.3343 54.5918 65.311 54.5644 65.2831 54.5424C65.2551 54.5203 65.2231 54.5041 65.1888 54.4946C65.1203 54.4759 65.0473 54.4846 64.985 54.5188C64.9228 54.553 64.8762 54.61 64.855 54.6779C64.8038 54.8612 64.7544 55.0363 64.7087 55.2022C64.7017 55.2264 64.6984 55.2514 64.6986 55.2765C64.6987 55.3354 64.7181 55.3927 64.7538 55.4396C64.7894 55.4864 64.8395 55.5203 64.8962 55.5359C64.9196 55.5434 64.9439 55.5477 64.9684 55.5487ZM72.4427 54.4488C72.4916 54.4484 72.5395 54.435 72.5814 54.4098C72.6234 54.3847 72.6579 54.3487 72.6814 54.3058L72.9356 53.8264C72.9525 53.795 72.963 53.7606 72.9666 53.7251C72.9701 53.6896 72.9666 53.6538 72.9562 53.6197C72.9458 53.5856 72.9288 53.5539 72.9061 53.5264C72.8834 53.4989 72.8555 53.4763 72.824 53.4597C72.7605 53.427 72.6868 53.4203 72.6185 53.4412C72.5502 53.4621 72.4927 53.5088 72.4582 53.5715C72.3768 53.7255 72.2918 53.8869 72.204 54.05C72.1834 54.0914 72.1735 54.1374 72.1753 54.1837C72.1771 54.2299 72.1905 54.275 72.2143 54.3146C72.2381 54.3543 72.2715 54.3873 72.3115 54.4106C72.3514 54.4339 72.3965 54.4467 72.4427 54.4478V54.4488ZM65.4174 53.9904C65.4755 53.9897 65.5319 53.9705 65.5784 53.9355C65.6249 53.9006 65.6592 53.8518 65.6762 53.7961C65.721 53.643 65.7723 53.4734 65.8308 53.2773C65.8502 53.2083 65.8419 53.1343 65.8078 53.0713C65.7736 53.0083 65.7162 52.9612 65.6479 52.94C65.579 52.9205 65.5053 52.9288 65.4424 52.963C65.3795 52.9973 65.3325 53.0548 65.3113 53.1233C65.2565 53.3066 65.2043 53.4808 65.1559 53.6449C65.149 53.6687 65.1453 53.6934 65.1449 53.7182C65.1449 53.7771 65.1637 53.8344 65.1986 53.8818C65.2335 53.9291 65.2826 53.964 65.3388 53.9813C65.3644 53.9882 65.3909 53.9913 65.4174 53.9904ZM73.1999 53.0179C73.2493 53.018 73.2979 53.0045 73.3401 52.9788C73.3824 52.9531 73.4168 52.9162 73.4395 52.8721C73.531 52.6888 73.6142 52.5357 73.6883 52.39C73.7082 52.3521 73.7185 52.3099 73.7184 52.2671C73.7182 52.2173 73.7045 52.1685 73.6787 52.1258C73.6529 52.0832 73.6161 52.0484 73.5721 52.0251C73.5338 52.0058 73.4915 51.9958 73.4486 51.9958C73.3991 51.9962 73.3505 52.01 73.3082 52.0359C73.2658 52.0617 73.2313 52.0985 73.2081 52.1425L72.9603 52.6219C72.9279 52.686 72.9218 52.7602 72.9434 52.8287C72.9649 52.8973 73.0123 52.9546 73.0755 52.9885C73.1145 53.0065 73.157 53.0153 73.1999 53.0142V53.0179ZM65.8893 52.4321C65.9469 52.4324 66.003 52.4141 66.0495 52.3799C66.0959 52.3457 66.1302 52.2975 66.1472 52.2424C66.2085 52.0471 66.2597 51.8831 66.31 51.7272C66.3308 51.6587 66.3241 51.5847 66.2913 51.521C66.2585 51.4573 66.2022 51.4089 66.1344 51.3862C66.1078 51.3778 66.08 51.3735 66.0521 51.3734C65.9948 51.3733 65.9389 51.3916 65.8927 51.4256C65.8465 51.4595 65.8123 51.5074 65.7951 51.5622C65.7402 51.7327 65.6854 51.9069 65.6314 52.0811C65.6231 52.1068 65.6188 52.1337 65.6186 52.1608C65.6191 52.2186 65.6377 52.2748 65.6719 52.3213C65.706 52.3679 65.754 52.4025 65.8088 52.4202C65.8349 52.4284 65.862 52.4325 65.8893 52.4321ZM73.937 51.5705C73.9872 51.5708 74.0364 51.557 74.0791 51.5306C74.1219 51.5042 74.1563 51.4662 74.1784 51.4211C74.2571 51.2634 74.3376 51.0993 74.4189 50.9334C74.4372 50.897 74.4466 50.8568 74.4464 50.8161C74.4468 50.7651 74.4327 50.715 74.4059 50.6717C74.379 50.6283 74.3404 50.5936 74.2946 50.5713C74.2579 50.5531 74.2175 50.5437 74.1766 50.5438C74.126 50.5435 74.0763 50.5576 74.0332 50.5843C73.9902 50.6111 73.9556 50.6495 73.9333 50.6951C73.8593 50.8473 73.7815 51.0058 73.6956 51.1791C73.675 51.2203 73.6653 51.2662 73.6673 51.3122C73.6694 51.3583 73.6832 51.4031 73.7074 51.4423C73.7316 51.4815 73.7654 51.5139 73.8056 51.5363C73.8457 51.5588 73.891 51.5705 73.937 51.5705ZM66.3886 50.883C66.4449 50.8825 66.4997 50.8646 66.5455 50.8318C66.5913 50.799 66.6259 50.7529 66.6447 50.6997C66.6968 50.5438 66.7526 50.3779 66.8157 50.1919C66.8377 50.1238 66.8323 50.0498 66.8007 49.9856C66.7691 49.9214 66.7138 49.8721 66.6465 49.8481C66.6185 49.8387 66.5892 49.8338 66.5596 49.8334C66.5034 49.834 66.4486 49.8519 66.4028 49.8847C66.357 49.9175 66.3223 49.9636 66.3036 50.0168C66.2515 50.1717 66.1948 50.3404 66.1307 50.5328C66.1212 50.5624 66.1165 50.5934 66.117 50.6245C66.1175 50.6959 66.1461 50.7642 66.1967 50.8145C66.2472 50.8649 66.3156 50.8931 66.3868 50.8931L66.3886 50.883ZM74.6421 50.1075C74.6934 50.1071 74.7435 50.0923 74.7869 50.0648C74.8302 50.0372 74.8649 49.998 74.8872 49.9517C74.9713 49.7684 75.0454 49.6089 75.1149 49.4567C75.1305 49.4215 75.1386 49.3834 75.1387 49.3449C75.1382 49.293 75.1231 49.2423 75.0951 49.1987C75.0671 49.1551 75.0273 49.1203 74.9805 49.0983C74.9455 49.082 74.9074 49.0735 74.8689 49.0735C74.8169 49.0734 74.766 49.0884 74.7223 49.1168C74.6786 49.1451 74.6441 49.1855 74.6229 49.233C74.5415 49.4164 74.4683 49.5713 74.3979 49.7225C74.3784 49.7637 74.3697 49.8092 74.3725 49.8546C74.3753 49.9001 74.3895 49.9442 74.4139 49.9826C74.4383 50.0211 74.472 50.0527 74.5119 50.0745C74.5518 50.0964 74.5966 50.1077 74.6421 50.1075ZM66.9163 49.344C66.9725 49.3438 67.0272 49.3261 67.0728 49.2932C67.1184 49.2603 67.1526 49.214 67.1705 49.1606C67.2355 48.9773 67.2949 48.8123 67.3534 48.6528C67.3738 48.618 67.3862 48.5791 67.3898 48.5389C67.3935 48.4987 67.3883 48.4582 67.3746 48.4202C67.3608 48.3823 67.3389 48.3478 67.3104 48.3193C67.2819 48.2908 67.2475 48.2689 67.2096 48.2552C67.1718 48.2416 67.1313 48.2364 67.0912 48.2401C67.0511 48.2439 67.0124 48.2564 66.9776 48.2769C66.9429 48.2973 66.9131 48.3252 66.8903 48.3585C66.8676 48.3917 66.8524 48.4296 66.8459 48.4695C66.7874 48.6299 66.727 48.7976 66.663 48.9819C66.6521 49.0112 66.6468 49.0423 66.6474 49.0735C66.6487 49.1293 66.6669 49.1834 66.6996 49.2286C66.7322 49.2738 66.7778 49.308 66.8303 49.3265C66.8581 49.3356 66.8871 49.3402 66.9163 49.3403V49.344ZM75.3014 48.6226C75.3546 48.6221 75.4065 48.6062 75.4509 48.5768C75.4952 48.5473 75.53 48.5056 75.5511 48.4566C75.6279 48.2733 75.6956 48.1092 75.7578 47.9516C75.7708 47.9202 75.7777 47.8866 75.7779 47.8526C75.7743 47.7917 75.7507 47.7338 75.7107 47.6879C75.6707 47.642 75.6166 47.6107 75.5569 47.599C75.4973 47.5872 75.4354 47.5956 75.381 47.623C75.3267 47.6503 75.2829 47.6949 75.2566 47.7499C75.1917 47.9131 75.1231 48.0799 75.0527 48.2467C75.0258 48.3131 75.0258 48.3875 75.0527 48.4539C75.0658 48.487 75.0854 48.5172 75.1104 48.5425C75.1354 48.5679 75.1652 48.5879 75.1981 48.6015C75.2311 48.6139 75.2662 48.6198 75.3014 48.6189V48.6226ZM67.4769 47.8177C67.5315 47.8172 67.5847 47.8003 67.6296 47.7693C67.6746 47.7382 67.7093 47.6945 67.7293 47.6436C67.8015 47.4548 67.8647 47.2898 67.9241 47.1385C67.9492 47.0716 67.9472 46.9975 67.9187 46.9319C67.8902 46.8664 67.8374 46.8146 67.7714 46.7874C67.7398 46.7754 67.7064 46.7692 67.6726 46.7691C67.6183 46.7689 67.5652 46.7851 67.5204 46.8157C67.4755 46.8463 67.4409 46.8898 67.4211 46.9405C67.3498 47.1238 67.2858 47.2898 67.2245 47.4502C67.2124 47.4817 67.2065 47.5153 67.2071 47.5492C67.2072 47.6036 67.2239 47.6568 67.255 47.7015C67.286 47.7462 67.3299 47.7804 67.3809 47.7994C67.4117 47.8102 67.4443 47.8152 67.4769 47.8141V47.8177ZM75.8904 47.1083C75.9465 47.1075 76.0011 47.0896 76.0467 47.0568C76.0923 47.024 76.1268 46.978 76.1455 46.9249C76.2059 46.7544 76.2653 46.5794 76.322 46.4052C76.3311 46.3771 76.3357 46.3477 76.3358 46.3181C76.3347 46.2622 76.3166 46.2079 76.2839 46.1625C76.2512 46.1171 76.2055 46.0828 76.1529 46.0642C76.1257 46.0551 76.0973 46.0505 76.0687 46.0504C76.0123 46.0508 75.9573 46.0686 75.9113 46.1014C75.8653 46.1342 75.8306 46.1804 75.8117 46.2338C75.7578 46.4006 75.6993 46.5711 75.6398 46.7398C75.6171 46.8075 75.6215 46.8815 75.6522 46.946C75.683 47.0105 75.7376 47.0605 75.8044 47.0853C75.8317 47.0967 75.8608 47.1033 75.8904 47.1046V47.1083ZM68.0786 46.3044C68.1319 46.3044 68.184 46.2885 68.2283 46.2588C68.2726 46.2291 68.3071 46.1869 68.3274 46.1375C68.3978 45.9689 68.4682 45.802 68.5368 45.6407C68.5509 45.608 68.5581 45.5727 68.5581 45.5371C68.5581 45.5015 68.5509 45.4663 68.5368 45.4335C68.517 45.3839 68.483 45.3412 68.439 45.311C68.395 45.2807 68.3431 45.2642 68.2898 45.2635C68.2364 45.2628 68.1841 45.278 68.1393 45.3071C68.0946 45.3362 68.0595 45.378 68.0384 45.4271C67.9671 45.5921 67.8957 45.7617 67.8262 45.9295C67.8104 45.9707 67.8046 46.0152 67.8095 46.0591C67.8144 46.103 67.8298 46.1451 67.8544 46.1818C67.879 46.2185 67.9121 46.2487 67.9508 46.2699C67.9895 46.2911 68.0327 46.3026 68.0768 46.3034L68.0786 46.3044ZM76.3678 45.5555C76.4277 45.5549 76.4858 45.5347 76.5332 45.498C76.5806 45.4612 76.6147 45.41 76.6302 45.352C76.665 45.2136 76.6952 45.0852 76.7217 44.9615C76.7308 44.9175 76.7427 44.8698 76.7537 44.813C76.7573 44.7949 76.7592 44.7764 76.7592 44.758C76.7529 44.6951 76.7251 44.6364 76.6807 44.5916C76.6363 44.5469 76.5778 44.5188 76.5152 44.5121C76.4525 44.5054 76.3895 44.5206 76.3367 44.555C76.2838 44.5894 76.2444 44.641 76.2251 44.7011L76.1949 44.8405C76.1684 44.9596 76.1391 45.0852 76.1035 45.2145C76.0946 45.2489 76.0925 45.2848 76.0975 45.32C76.1025 45.3552 76.1144 45.3891 76.1325 45.4197C76.1506 45.4503 76.1746 45.477 76.203 45.4982C76.2315 45.5195 76.2638 45.5349 76.2983 45.5435C76.321 45.5493 76.3443 45.552 76.3678 45.5518V45.5555ZM68.7298 44.8139C68.781 44.8132 68.8311 44.7982 68.8742 44.7705C68.9174 44.7428 68.9519 44.7035 68.974 44.6571V44.6507C69.0471 44.4931 69.123 44.3317 69.1998 44.1704C69.2154 44.1384 69.2244 44.1037 69.2265 44.0681C69.2285 44.0326 69.2235 43.9971 69.2118 43.9635C69.2001 43.9299 69.1818 43.899 69.1581 43.8725C69.1344 43.846 69.1057 43.8245 69.0736 43.8092C69.0089 43.7793 68.9352 43.7758 68.8679 43.7994C68.8007 43.823 68.7452 43.8719 68.7133 43.9357C68.6365 44.0952 68.5578 44.2621 68.4801 44.4298C68.4646 44.4648 68.4562 44.5025 68.4554 44.5407C68.4554 44.6137 68.4843 44.6836 68.5358 44.7352C68.5872 44.7868 68.657 44.8157 68.7298 44.8157V44.8139ZM76.6659 43.9559C76.7321 43.9551 76.7957 43.9304 76.8451 43.8862C76.8946 43.8421 76.9264 43.7816 76.9348 43.7158C76.9558 43.5324 76.9723 43.3491 76.9841 43.1658C76.9846 43.1587 76.9846 43.1517 76.9841 43.1447C76.9744 43.0811 76.9428 43.0229 76.8947 42.9802C76.8465 42.9376 76.785 42.9132 76.7208 42.9114C76.6567 42.9095 76.5939 42.9303 76.5434 42.9701C76.4929 43.0099 76.4579 43.0661 76.4446 43.1291C76.4327 43.3051 76.4171 43.482 76.397 43.6562C76.39 43.7272 76.4108 43.7981 76.455 43.8541C76.4992 43.91 76.5633 43.9465 76.6339 43.9559H76.6659ZM69.4513 43.35C69.5003 43.3496 69.5483 43.336 69.5902 43.3107C69.6322 43.2854 69.6667 43.2493 69.69 43.2061C69.7815 43.0411 69.8629 42.8825 69.9452 42.7359C69.98 42.673 69.9888 42.599 69.9699 42.5296C69.9605 42.4953 69.9443 42.4633 69.9223 42.4354C69.9003 42.4076 69.8729 42.3844 69.8418 42.3674C69.8017 42.3445 69.7563 42.3325 69.7101 42.3325C69.6622 42.3329 69.6151 42.3459 69.5737 42.3702C69.5323 42.3945 69.498 42.4292 69.4742 42.4709C69.3827 42.6295 69.2977 42.7909 69.2126 42.9522C69.1909 42.9934 69.1801 43.0396 69.1814 43.0862C69.1827 43.1328 69.196 43.1783 69.22 43.2183C69.2441 43.2582 69.278 43.2913 69.3185 43.3142C69.359 43.3371 69.4048 43.3491 69.4513 43.3491V43.35ZM76.7299 42.3344H76.7418C76.8116 42.3306 76.8772 42.2997 76.9247 42.2482C76.9731 42.195 76.9987 42.1249 76.996 42.053C76.9887 41.8696 76.975 41.678 76.9567 41.4956C76.9422 41.4327 76.9059 41.3769 76.8544 41.338C76.8029 41.2992 76.7394 41.2797 76.675 41.2831C76.6107 41.2865 76.5495 41.3125 76.5024 41.3566C76.4552 41.4006 76.425 41.4599 76.4171 41.5241C76.4167 41.5332 76.4167 41.5424 76.4171 41.5516C76.4345 41.722 76.4473 41.898 76.4546 42.075C76.4573 42.1451 76.4871 42.2115 76.5378 42.26C76.5886 42.3084 76.6562 42.3351 76.7263 42.3344H76.7299ZM70.2643 41.943C70.3095 41.9427 70.3539 41.9313 70.3937 41.9097C70.4334 41.8881 70.4672 41.857 70.492 41.8192C70.4925 41.8171 70.4925 41.8149 70.492 41.8128C70.5899 41.6606 70.6877 41.514 70.7838 41.3774C70.8236 41.3182 70.8389 41.2458 70.8265 41.1755C70.814 41.1052 70.7748 41.0425 70.717 41.0006C70.6579 40.9604 70.5854 40.9449 70.5151 40.9574C70.4447 40.9699 70.382 41.0094 70.3402 41.0676C70.2378 41.2151 70.1345 41.3691 70.0339 41.5259C70.0057 41.5689 69.9908 41.6193 69.9909 41.6707C69.9912 41.7161 70.0028 41.7607 70.0245 41.8005C70.0462 41.8403 70.0773 41.8742 70.1153 41.899C70.1595 41.9281 70.2114 41.9434 70.2643 41.943ZM76.5004 40.7293C76.5413 40.728 76.5814 40.7174 76.6178 40.6985C76.6541 40.6796 76.6858 40.6527 76.7104 40.6199C76.7351 40.5872 76.7521 40.5493 76.7602 40.509C76.7683 40.4688 76.7673 40.4272 76.7573 40.3874C76.7081 40.2038 76.6492 40.023 76.5808 39.8457C76.5548 39.7909 76.5114 39.7463 76.4575 39.7188C76.4035 39.6914 76.342 39.6825 76.2826 39.6937C76.2231 39.7049 76.169 39.7355 76.1286 39.7807C76.0883 39.8259 76.064 39.8833 76.0596 39.9438C76.0596 39.9779 76.0658 40.0117 76.0779 40.0437C76.14 40.2025 76.1932 40.3647 76.237 40.5295C76.2531 40.5864 76.2871 40.6365 76.3339 40.6725C76.3806 40.7085 76.4377 40.7284 76.4967 40.7293H76.5004ZM71.23 40.6377C71.2682 40.6373 71.306 40.629 71.3408 40.6132C71.3756 40.5974 71.4067 40.5745 71.4322 40.546L71.4367 40.5396C71.5218 40.4479 71.6068 40.3562 71.691 40.2646C71.7275 40.227 71.7614 40.1949 71.7916 40.1647C71.8413 40.1133 71.8691 40.0446 71.8691 39.9731C71.8691 39.9015 71.8413 39.8328 71.7916 39.7815C71.7404 39.7317 71.6718 39.7038 71.6004 39.7038C71.5291 39.7038 71.4605 39.7317 71.4093 39.7815L71.3041 39.8869C71.2127 39.9786 71.1157 40.0831 71.0243 40.1867C70.981 40.2351 70.9569 40.2977 70.9566 40.3627C70.9561 40.4016 70.964 40.4402 70.9798 40.4758C70.9955 40.5114 71.0188 40.5432 71.0481 40.5689C71.0974 40.6125 71.1606 40.6369 71.2264 40.6377H71.23ZM72.4189 39.5322C72.4784 39.5323 72.5363 39.5127 72.5835 39.4763C72.7253 39.3663 72.867 39.2654 73.0051 39.1774C73.0505 39.1434 73.0842 39.0962 73.1017 39.0422C73.1192 38.9883 73.1197 38.9302 73.1029 38.876C73.0862 38.8217 73.0531 38.774 73.0083 38.7394C72.9634 38.7047 72.909 38.6848 72.8524 38.6825C72.8008 38.6822 72.7502 38.6972 72.707 38.7255C72.5561 38.8227 72.4006 38.9318 72.2497 39.0509C72.2072 39.0866 72.1764 39.1343 72.1614 39.1879C72.1465 39.2414 72.1481 39.2982 72.166 39.3508C72.1839 39.4035 72.2173 39.4494 72.2618 39.4826C72.3063 39.5158 72.3598 39.5347 72.4153 39.5368L72.4189 39.5322ZM75.7935 39.2847C75.8448 39.2831 75.8946 39.2671 75.9373 39.2386C75.98 39.21 76.0139 39.17 76.035 39.1231C76.0562 39.0762 76.0638 39.0243 76.0569 38.9733C76.0501 38.9223 76.0292 38.8743 75.9965 38.8346C75.8631 38.6802 75.7092 38.5448 75.5392 38.4322C75.4953 38.4038 75.4442 38.3885 75.392 38.3882C75.3351 38.3908 75.2804 38.411 75.2355 38.4462C75.1906 38.4813 75.1577 38.5296 75.1414 38.5843C75.1251 38.639 75.1263 38.6975 75.1446 38.7515C75.163 38.8056 75.1976 38.8525 75.2438 38.8859C75.3735 38.9721 75.491 39.0754 75.5932 39.193C75.6176 39.2205 75.6473 39.2427 75.6804 39.2584C75.7135 39.2742 75.7495 39.2831 75.7861 39.2847H75.7935ZM73.8318 38.7567C73.8579 38.7564 73.8837 38.7524 73.9086 38.7448C74.0613 38.6988 74.2187 38.6705 74.3778 38.6605C74.4406 38.6457 74.4962 38.6092 74.5349 38.5575C74.5735 38.5057 74.5928 38.4419 74.5892 38.3773C74.5856 38.3128 74.5594 38.2515 74.5152 38.2044C74.471 38.1573 74.4117 38.1273 74.3476 38.1196C74.1446 38.1308 73.9435 38.1659 73.7486 38.2241C73.6926 38.2414 73.6436 38.2761 73.6087 38.3233C73.5738 38.3704 73.5549 38.4276 73.5547 38.4863C73.5548 38.5114 73.5585 38.5364 73.5657 38.5605C73.5824 38.6166 73.6165 38.6658 73.6631 38.7011C73.7096 38.7364 73.7662 38.7558 73.8245 38.7567H73.8318Z" fill="#1B314B"/>
<path fill-rule="evenodd" clip-rule="evenodd" d="M73.0161 54.3039C68.7335 52.8006 57.9267 49.6896 56.0319 50.213C54.137 50.7364 53.5325 50.3367 52.639 53.908C51.7456 57.4792 50.6856 61.6463 50.4442 62.9369C50.2028 64.2276 50.1479 65.7996 54.4525 67.3845C61.0278 69.8053 76.4547 73.7469 78.784 74.4903C81.1132 75.2337 82.4841 73.1896 83.1553 71.5048C83.8266 69.82 87.9345 62.1119 85.6812 59.9807C83.4278 57.8495 75.3116 55.1097 73.0161 54.3039Z" fill="#E84C3D"/>
<path fill-rule="evenodd" clip-rule="evenodd" d="M76.9731 55.7174C75.2831 55.0868 73.8053 54.5808 73.0161 54.3039C68.7334 52.8006 57.9266 49.6896 56.0318 50.213C54.1369 50.7364 53.5324 50.3367 52.6389 53.908C51.7455 57.4792 50.6856 61.6463 50.4441 62.9369C50.2027 64.2276 50.1478 65.7996 54.4524 67.3845C58.6235 68.9208 66.3593 71.0685 72.0513 72.624C72.9127 71.855 74.1025 70.7697 74.5031 69.71C75.2685 67.6851 79.3097 58.3904 76.9731 55.7174Z" fill="#C43D32"/>
<path d="M79.7414 75.3254C81.4223 75.3254 82.8572 74.0778 83.7827 71.756C83.8741 71.5186 84.0515 71.1382 84.2719 70.656C85.7196 67.5037 88.4119 61.6326 86.1448 59.4903C84.1786 57.6314 78.4785 55.4938 73.7313 53.8392L73.2393 53.6678C70.3494 52.6531 58.2056 48.9123 55.8526 49.5631C55.6048 49.6309 55.3816 49.6832 55.1658 49.7327C53.4538 50.1277 52.7881 50.5503 51.9842 53.7457C51.8516 54.2746 51.7163 54.8164 51.5791 55.3599C50.7981 58.4765 49.9897 61.6949 49.7812 62.815C49.4565 64.5512 49.7693 66.3844 54.2193 68.0225C58.8879 69.7421 67.8089 72.1721 73.7121 73.7809C76.056 74.4225 77.9078 74.9239 78.5791 75.1384C78.9545 75.2607 79.3467 75.3238 79.7414 75.3254ZM56.6382 50.8235C59.0488 50.8235 67.9543 53.2443 72.7921 54.9429L73.2868 55.1161C75.7414 55.9713 83.2093 58.5737 85.2166 60.473C85.8248 61.0468 85.822 62.5263 85.2111 64.6373C84.6377 66.6173 83.6784 68.7081 83.0437 70.0923C82.8151 70.59 82.6349 70.9842 82.5279 71.2537C81.9271 72.7597 80.826 74.4326 78.9879 73.8459C78.2892 73.6223 76.5187 73.1401 74.0651 72.471C68.1848 70.8687 59.2976 68.4469 54.6848 66.7484C50.6929 65.2817 50.9353 63.9984 51.1072 63.0607C51.3093 61.9818 52.1132 58.7809 52.8887 55.6863L53.2938 54.0711C53.6349 52.7063 53.934 51.9317 54.2641 51.5604C54.5147 51.2781 54.8128 51.1993 55.4685 51.048C55.6871 50.9976 55.9349 50.9408 56.2102 50.8647C56.3505 50.8329 56.4943 50.819 56.6382 50.8235Z" fill="white"/>
<path fill-rule="evenodd" clip-rule="evenodd" d="M72.6091 53.49C67.3516 51.7593 58.4598 48.6592 56.5677 49.1817C54.6756 49.7042 53.5324 50.3358 52.6353 53.907C51.7382 57.4783 50.6819 61.6454 50.4405 62.936C50.1991 64.2266 50.884 66.5439 54.2494 68.1563C57.2243 69.5817 60.9345 70.348 65.6643 71.6698C69.6882 72.7945 73.8035 62.2595 74.1336 56.7211C74.2443 54.9465 73.7678 53.8713 72.6091 53.49Z" fill="#E84C3D"/>
<path fill-rule="evenodd" clip-rule="evenodd" d="M53.8489 50.8739C53.3862 51.5412 52.9929 52.4945 52.639 53.9098C51.7455 57.4802 50.6856 61.6482 50.4442 62.9388C50.436 62.9855 50.4286 63.0305 50.4222 63.0827C53.6916 64.2349 59.1384 65.9692 61.7347 66.7887C62.1208 66.911 62.5355 66.9079 62.9196 66.7798C63.3038 66.6517 63.6377 66.4052 63.8738 66.0756C64.8688 63.8124 66.2652 59.2795 67.0124 56.7588C67.0871 56.5282 67.1144 56.2848 67.0925 56.0434C67.0707 55.802 67.0002 55.5675 66.8853 55.3542C66.7703 55.1409 66.6134 54.9531 66.424 54.8024C66.2346 54.6517 66.0166 54.541 65.7833 54.4772C62.6876 53.5606 56.8439 51.785 53.8489 50.8739Z" fill="#F5DED6"/>
<path d="M66.2779 72.4325C66.9794 72.4325 67.689 72.1777 68.3996 71.6708C70.4819 70.1831 72.0366 66.8529 72.7783 65.0013C73.9114 62.1725 74.6713 59.0926 74.8112 56.7634C74.9393 54.6414 74.2698 53.3241 72.8203 52.8466C72.2415 52.6568 71.6196 52.4497 70.9675 52.2324C63.7722 49.84 58.1306 48.0479 56.3875 48.5301C54.1314 49.1534 52.8977 50.093 51.9841 53.743C51.8515 54.2719 51.7162 54.8137 51.579 55.3573C50.798 58.4739 49.9896 61.6922 49.7811 62.8123C49.4683 64.4861 50.3755 67.05 53.9613 68.7705C56.2476 69.8659 58.9701 70.5855 62.1224 71.4187C63.1951 71.702 64.3035 71.9953 65.4869 72.3262C65.7446 72.3973 66.0107 72.433 66.2779 72.4325ZM72.3988 54.1335C72.9548 54.3169 73.5785 54.7752 73.4632 56.6818C73.1889 61.2485 70.4353 68.5533 67.6104 70.5681C66.9702 71.0264 66.3941 71.1721 65.8445 71.0191C64.6556 70.6854 63.539 70.3912 62.4608 70.107C59.3752 69.2912 56.7094 68.5863 54.5384 67.5459C51.4428 66.0628 50.9224 64.0296 51.1026 63.0617C51.3047 61.9828 52.1085 58.7818 52.884 55.6873L53.2892 54.0721C54.1305 50.7099 55.0999 50.2891 56.7414 49.8354C57.0871 49.7437 58.2467 49.7437 62.1242 50.8437C64.7864 51.6018 67.8408 52.6174 70.5377 53.5139C71.1907 53.7311 71.818 53.9392 72.3942 54.1299L72.3988 54.1335Z" fill="white"/>
<path d="M71.3709 58.3537C71.3862 58.3547 71.4014 58.3547 71.4167 58.3537L76.6541 57.6433C76.698 57.6373 76.7404 57.6227 76.7787 57.6003C76.817 57.5778 76.8505 57.5481 76.8774 57.5127C76.9042 57.4773 76.9238 57.4369 76.9351 57.3939C76.9464 57.3509 76.9491 57.3061 76.9431 57.262C76.9371 57.218 76.9224 57.1755 76.9001 57.1371C76.8777 57.0987 76.848 57.0651 76.8127 57.0382C76.7774 57.0113 76.7371 56.9916 76.6942 56.9804C76.6513 56.9691 76.6066 56.9663 76.5626 56.9724L71.3252 57.6828C71.24 57.6937 71.1621 57.7368 71.1075 57.8034C71.0529 57.8699 71.0257 57.9548 71.0314 58.0407C71.0371 58.1267 71.0754 58.2072 71.1383 58.2659C71.2012 58.3246 71.2841 58.357 71.37 58.3565L71.3709 58.3537Z" fill="#213D5E"/>
<path d="M75.8594 59.7424C75.9259 59.742 75.9909 59.7219 76.0461 59.6847C76.1014 59.6474 76.1444 59.5947 76.1699 59.533C76.1954 59.4714 76.2022 59.4036 76.1894 59.3381C76.1766 59.2726 76.1448 59.2124 76.098 59.1649L72.2836 55.3296C72.2203 55.2661 72.1344 55.2303 72.0448 55.2302C71.9552 55.2301 71.8692 55.2657 71.8058 55.3292C71.7424 55.3926 71.7067 55.4787 71.7066 55.5686C71.7065 55.6584 71.742 55.7446 71.8053 55.8081L75.6198 59.6425C75.6512 59.6741 75.6885 59.6992 75.7296 59.7164C75.7707 59.7335 75.8148 59.7423 75.8594 59.7424Z" fill="#213D5E"/>
<path d="M70.5387 62.1936C70.5582 62.1949 70.5777 62.1949 70.5972 62.1936L75.8035 61.2889C75.8479 61.2821 75.8905 61.2665 75.9289 61.2431C75.9672 61.2196 76.0004 61.1887 76.0267 61.1522C76.0529 61.1156 76.0716 61.0742 76.0817 61.0304C76.0918 60.9865 76.093 60.941 76.0854 60.8967C76.0777 60.8523 76.0613 60.81 76.0371 60.7721C76.0128 60.7341 75.9813 60.7015 75.9443 60.6759C75.9074 60.6504 75.8657 60.6325 75.8217 60.6233C75.7777 60.6141 75.7324 60.6138 75.6883 60.6225L70.482 61.5263C70.3983 61.5402 70.323 61.5852 70.2709 61.6523C70.2189 61.7194 70.1939 61.8037 70.2011 61.8884C70.2082 61.9731 70.2469 62.052 70.3095 62.1094C70.3721 62.1668 70.4539 62.1985 70.5387 62.1982V62.1936Z" fill="#213D5E"/>
<path d="M75.071 63.4145C75.1174 63.4147 75.1634 63.4053 75.2059 63.3866C75.2484 63.368 75.2866 63.3406 75.3179 63.3063C75.3482 63.2739 75.3718 63.2358 75.3874 63.1943C75.4029 63.1527 75.4101 63.1085 75.4086 63.0641C75.4071 63.0197 75.3968 62.9761 75.3784 62.9357C75.3601 62.8953 75.3339 62.859 75.3015 62.8287L71.348 59.1383C71.3164 59.1042 71.2781 59.077 71.2355 59.0585C71.1929 59.0399 71.147 59.0303 71.1006 59.0304C71.0541 59.0304 71.0082 59.0401 70.9656 59.0588C70.9231 59.0774 70.8848 59.1047 70.8533 59.1388C70.8217 59.173 70.7976 59.2133 70.7823 59.2573C70.767 59.3012 70.7609 59.3479 70.7644 59.3943C70.7679 59.4407 70.781 59.4859 70.8027 59.527C70.8245 59.5681 70.8544 59.6043 70.8908 59.6333L74.8369 63.3237C74.9005 63.3828 74.9843 63.4152 75.071 63.4145Z" fill="#213D5E"/>
<path d="M69.4587 65.8308C69.4779 65.8321 69.4972 65.8321 69.5163 65.8308L74.7236 64.927C74.8122 64.9116 74.8912 64.8617 74.943 64.788C74.9949 64.7143 75.0155 64.623 75.0002 64.5342C74.9849 64.4453 74.935 64.3662 74.8616 64.3142C74.7881 64.2622 74.697 64.2416 74.6083 64.2569L69.4011 65.1607C69.3174 65.1747 69.2419 65.2197 69.1899 65.2869C69.1378 65.3542 69.1129 65.4386 69.1202 65.5233C69.1275 65.6081 69.1664 65.687 69.2291 65.7444C69.2918 65.8017 69.3738 65.8332 69.4587 65.8326V65.8308Z" fill="#213D5E"/>
<path d="M73.9947 67.0518C74.0624 67.0517 74.1285 67.0312 74.1845 66.9929C74.2404 66.9547 74.2835 66.9004 74.3083 66.8372C74.3331 66.774 74.3383 66.7049 74.3233 66.6387C74.3083 66.5725 74.2738 66.5123 74.2242 66.4661L70.2708 62.7757C70.2392 62.7416 70.2009 62.7144 70.1583 62.6958C70.1157 62.6772 70.0698 62.6677 70.0233 62.6677C69.9769 62.6678 69.9309 62.6774 69.8884 62.6961C69.8458 62.7147 69.8076 62.742 69.776 62.7762C69.7445 62.8103 69.7203 62.8506 69.705 62.8946C69.6897 62.9385 69.6837 62.9852 69.6872 63.0316C69.6907 63.078 69.7037 63.1232 69.7255 63.1643C69.7472 63.2055 69.7772 63.2417 69.8135 63.2706L73.7642 66.9611C73.8267 67.0196 73.9092 67.052 73.9947 67.0518Z" fill="#213D5E"/>
<path d="M67.9415 69.4057C67.9576 69.4067 67.9738 69.4067 67.99 69.4057L73.2209 68.6541C73.3096 68.6413 73.3896 68.5938 73.4432 68.5219C73.4969 68.4501 73.5199 68.3598 73.5072 68.2709C73.4945 68.1821 73.447 68.1019 73.3753 68.0481C73.3037 67.9943 73.2136 67.9713 73.1249 67.984L67.8939 68.7357C67.8084 68.7466 67.7303 68.7899 67.6756 68.8568C67.621 68.9236 67.5939 69.0089 67.6 69.0951C67.6061 69.1813 67.6448 69.2619 67.7083 69.3203C67.7718 69.3788 67.8553 69.4107 67.9415 69.4094V69.4057Z" fill="#213D5E"/>
<path d="M72.44 70.7577C72.4848 70.758 72.5292 70.7492 72.5705 70.7319C72.6118 70.7146 72.6492 70.6891 72.6805 70.6569C72.712 70.6256 72.7369 70.5883 72.754 70.5472C72.771 70.5062 72.7798 70.4621 72.7798 70.4177C72.7798 70.3732 72.771 70.3292 72.754 70.2881C72.7369 70.247 72.712 70.2098 72.6805 70.1784L68.8396 66.3743C68.808 66.3431 68.7706 66.3184 68.7294 66.3017C68.6883 66.2849 68.6443 66.2764 68.6 66.2767C68.5556 66.277 68.5117 66.2861 68.4708 66.3034C68.43 66.3207 68.3929 66.3459 68.3617 66.3775C68.3306 66.4092 68.3059 66.4467 68.2892 66.4879C68.2725 66.5291 68.2641 66.5732 68.2644 66.6177C68.2647 66.6622 68.2737 66.7061 68.2909 66.7471C68.3082 66.7881 68.3333 66.8252 68.3649 66.8565L72.2059 70.6606C72.2683 70.7223 72.3523 70.7572 72.44 70.7577Z" fill="#213D5E"/>
<path d="M71.5383 73.4427C71.6415 73.4418 71.7436 73.4225 71.8401 73.3858C71.9709 73.338 72.089 73.2608 72.1855 73.1603C72.282 73.0597 72.3544 72.9384 72.397 72.8056C72.8195 71.5773 71.1551 68.809 70.964 68.4974C70.9265 68.436 70.8704 68.3882 70.8039 68.3609C70.7374 68.3337 70.664 68.3285 70.5943 68.3459C70.5246 68.3634 70.4623 68.4027 70.4165 68.4582C70.3706 68.5136 70.3436 68.5822 70.3394 68.6541C70.3001 69.3058 70.1501 72.5957 71.0829 73.2896C71.214 73.389 71.3739 73.4427 71.5383 73.4427ZM70.9832 69.9255C71.4898 70.9338 71.9315 72.0842 71.7587 72.5838C71.7487 72.6219 71.7294 72.6571 71.7026 72.686C71.6758 72.7149 71.6423 72.7368 71.6051 72.7497C71.5301 72.7772 71.5072 72.7607 71.4853 72.7442C71.1615 72.5068 70.996 71.2601 70.9832 69.9255Z" fill="#1B314B"/>
<path d="M67.0947 72.1529C67.124 72.1529 67.1542 72.1529 67.1862 72.1529C68.375 72.0374 70.5223 69.4149 70.9411 68.8905C70.987 68.8327 71.0128 68.7615 71.0146 68.6876C71.0163 68.6137 70.994 68.5413 70.9509 68.4814C70.9079 68.4214 70.8464 68.3772 70.776 68.3554C70.7056 68.3336 70.63 68.3355 70.5607 68.3607C69.2722 68.8346 66.5478 70.1711 66.354 71.2793C66.3354 71.3876 66.3407 71.4987 66.3696 71.6047C66.3985 71.7108 66.4503 71.8091 66.5213 71.8929C66.5923 71.9766 66.6808 72.0437 66.7805 72.0895C66.8802 72.1352 66.9887 72.1584 67.0984 72.1575L67.0947 72.1529ZM69.4651 69.5643C68.5863 70.5213 67.5959 71.4278 67.1203 71.4746C67.0962 71.4783 67.0716 71.4755 67.049 71.4663C67.0088 71.4315 67.0115 71.4187 67.0161 71.393C67.0883 70.9814 68.161 70.2069 69.4651 69.5643Z" fill="#1B314B"/>
<path d="M69.1248 76.8571C69.2033 76.8568 69.2792 76.8293 69.3395 76.7791C69.3999 76.729 69.4411 76.6593 69.4559 76.5821L71.0106 68.7375C71.0234 68.6513 71.0027 68.5634 70.9527 68.4921C70.9026 68.4209 70.8271 68.3716 70.7418 68.3546C70.6565 68.3377 70.568 68.3543 70.4946 68.401C70.4212 68.4477 70.3685 68.5209 70.3475 68.6055L68.7929 76.4501C68.7841 76.4938 68.784 76.5387 68.7927 76.5824C68.8013 76.6261 68.8185 76.6676 68.8433 76.7046C68.868 76.7416 68.8998 76.7733 68.9368 76.7979C68.9739 76.8225 69.0154 76.8395 69.059 76.848C69.0806 76.8533 69.1026 76.8564 69.1248 76.8571Z" fill="#1B314B"/>
<path d="M67.4001 76.0871C67.4646 76.0873 67.5277 76.0688 67.582 76.0341C67.6363 75.9993 67.6795 75.9496 67.7065 75.891L70.9823 68.8163C71.02 68.7348 71.0239 68.6417 70.9931 68.5574C70.9623 68.4731 70.8994 68.4045 70.8181 68.3667C70.7369 68.3289 70.644 68.325 70.5598 68.3558C70.4757 68.3867 70.4073 68.4498 70.3696 68.5312L67.0938 75.6059C67.0698 75.6575 67.0591 75.7143 67.0629 75.7711C67.0666 75.8279 67.0846 75.8828 67.1151 75.9308C67.1457 75.9788 67.1878 76.0183 67.2376 76.0456C67.2875 76.0729 67.3433 76.0872 67.4001 76.0871Z" fill="#1B314B"/>
</g>
<defs>
<clipPath id="clip0_2003_34">
<rect width="110" height="91" fill="white" transform="matrix(-1 0 0 1 110.32 0)"/>
</clipPath>
</defs>
</svg>
