<svg xmlns="http://www.w3.org/2000/svg" width="25" height="25" fill="none">
<path stroke="#fff" stroke-linecap="round" stroke-linejoin="round" stroke-width="2" d="M12.5 7.667v9.666M7.667 12.5h9.666M7.425 23.375h10.15c2.03 0 3.045 0 3.82-.395a3.625 3.625 0 0 0 1.585-1.584c.395-.776.395-1.79.395-3.821V7.425c0-2.03 0-3.045-.395-3.82a3.625 3.625 0 0 0-1.584-1.585c-.776-.395-1.79-.395-3.821-.395H7.425c-2.03 0-3.045 0-3.82.395A3.625 3.625 0 0 0 2.02 3.604c-.395.776-.395 1.79-.395 3.821v10.15c0 2.03 0 3.045.395 3.82a3.625 3.625 0 0 0 1.584 1.585c.776.395 1.79.395 3.821.395Z"/></svg>