<svg xmlns="http://www.w3.org/2000/svg" width="21" height="20" fill="none">
<path stroke="#9F4132" stroke-linecap="round" stroke-linejoin="round" stroke-width="2" d="M6 1h7.1c2.24 0 3.36 0 4.216.436a4 4 0 0 1 1.748 1.748c.436.856.436 1.976.436 4.216v7.1M4.7 19h8.1c1.12 0 1.68 0 2.108-.218a2 2 0 0 0 .874-.874C16 17.48 16 16.92 16 15.8V7.7c0-1.12 0-1.68-.218-2.108a2 2 0 0 0-.874-.874C14.48 4.5 13.92 4.5 12.8 4.5H4.7c-1.12 0-1.68 0-2.108.218a2 2 0 0 0-.874.874C1.5 6.02 1.5 6.58 1.5 7.7v8.1c0 1.12 0 1.68.218 2.108a2 2 0 0 0 .874.874C3.02 19 3.58 19 4.7 19Z"/></svg>